HIERARCHY
ROOT hip
{
  OFFSET 0 0 0
  CHANNELS 6 Xposition Yposition Zposition Zrotation Yrotation Xrotation
  JOINT abdomen
  {
    OFFSET 0 20.6881 -0.73152
    CHANNELS 3 Zrotation Xrotation Yrotation
    JOINT chest
    {
      OFFSET 0 11.7043 -0.48768
      CHANNELS 3 Zrotation Xrotation Yrotation
      JOINT neck
      {
        OFFSET 0 22.1894 -2.19456
        CHANNELS 3 Zrotation Xrotation Yrotation
        JOINT head
        {
          OFFSET -0.24384 7.07133 1.2192
          CHANNELS 3 Zrotation Xrotation Yrotation
          JOINT leftEye
          {
            OFFSET 4.14528 8.04674 8.04672
            CHANNELS 3 Zrotation Xrotation Yrotation
            End Site
            {
              OFFSET 1 0 0
            }
          }
          JOINT rightEye
          {
            OFFSET -3.6576 8.04674 8.04672
            CHANNELS 3 Zrotation Xrotation Yrotation
            End Site
            {
              OFFSET 1 0 0
            }
          }
        }
      }
      JOINT rCollar
      {
        OFFSET -2.68224 19.2634 -4.8768
        CHANNELS 3 Zrotation Xrotation Yrotation
        JOINT rShldr
        {
          OFFSET -8.77824 -1.95073 1.46304
          CHANNELS 3 Zrotation Xrotation Yrotation
          JOINT rForeArm
          {
            OFFSET -28.1742 -1.7115 0.48768
            CHANNELS 3 Zrotation Xrotation Yrotation
            JOINT rHand
            {
              OFFSET -22.5879 0.773209 7.07136
              CHANNELS 3 Zrotation Xrotation Yrotation
              JOINT rThumb1
              {
                OFFSET -1.2192 -0.487915 3.41376
                CHANNELS 3 Zrotation Xrotation Yrotation
                JOINT rThumb2
                {
                  OFFSET -3.37035 -0.52449 3.41376
                  CHANNELS 3 Zrotation Xrotation Yrotation
                  End Site
                  {
                    OFFSET -1.78271 -1.18214 1.43049
                  }
                }
              }
              JOINT rIndex1
              {
                OFFSET -7.75947 0.938293 5.60832
                CHANNELS 3 Zrotation Xrotation Yrotation
                JOINT rIndex2
                {
                  OFFSET -2.54057 -0.884171 1.56538
                  CHANNELS 3 Zrotation Xrotation Yrotation
                  End Site
                  {
                    OFFSET -1.62519 -0.234802 1.16502
                  }
                }
              }
              JOINT rMid1
              {
                OFFSET -8.24714 1.18213 3.41376
                CHANNELS 3 Zrotation Xrotation Yrotation
                JOINT rMid2
                {
                  OFFSET -3.10165 -0.590103 1.0647
                  CHANNELS 3 Zrotation Xrotation Yrotation
                  End Site
                  {
                    OFFSET -2.48547 -0.328903 0.83742
                  }
                }
              }
              JOINT rRing1
              {
                OFFSET -8.82822 0.546677 1.51678
                CHANNELS 3 Zrotation Xrotation Yrotation
                JOINT rRing2
                {
                  OFFSET -2.60934 -0.819778 -0.0198488
                  CHANNELS 3 Zrotation Xrotation Yrotation
                  End Site
                  {
                    OFFSET -2.33842 -0.294052 0.168128
                  }
                }
              }
              JOINT rPinky1
              {
                OFFSET -8.27202 -0.0477905 -0.4584
                CHANNELS 3 Zrotation Xrotation Yrotation
                JOINT rPinky2
                {
                  OFFSET -1.82734 -0.647385 -0.700984
                  CHANNELS 3 Zrotation Xrotation Yrotation
                  End Site
                  {
                    OFFSET -1.69225 -0.51767 -0.607171
                  }
                }
              }
            }
          }
        }
      }
      JOINT lCollar
      {
        OFFSET 2.68224 19.2634 -4.8768
        CHANNELS 3 Zrotation Xrotation Yrotation
        JOINT lShldr
        {
          OFFSET 8.77824 -1.95073 1.46304
          CHANNELS 3 Zrotation Xrotation Yrotation
          JOINT lForeArm
          {
            OFFSET 28.1742 -1.7115 0.48768
            CHANNELS 3 Zrotation Xrotation Yrotation
            JOINT lHand
            {
              OFFSET 22.5879 0.773209 7.07136
              CHANNELS 3 Zrotation Xrotation Yrotation
              JOINT lThumb1
              {
                OFFSET 1.2192 -0.487915 3.41376
                CHANNELS 3 Zrotation Xrotation Yrotation
                JOINT lThumb2
                {
                  OFFSET 3.37035 -0.52449 3.41376
                  CHANNELS 3 Zrotation Xrotation Yrotation
                  End Site
                  {
                    OFFSET 1.78271 -1.18214 1.43049
                  }
                }
              }
              JOINT lIndex1
              {
                OFFSET 7.75947 0.938293 5.60832
                CHANNELS 3 Zrotation Xrotation Yrotation
                JOINT lIndex2
                {
                  OFFSET 2.54057 -0.884171 1.56538
                  CHANNELS 3 Zrotation Xrotation Yrotation
                  End Site
                  {
                    OFFSET 1.62519 -0.234802 1.16502
                  }
                }
              }
              JOINT lMid1
              {
                OFFSET 8.24714 1.18213 3.41376
                CHANNELS 3 Zrotation Xrotation Yrotation
                JOINT lMid2
                {
                  OFFSET 3.10165 -0.590103 1.0647
                  CHANNELS 3 Zrotation Xrotation Yrotation
                  End Site
                  {
                    OFFSET 2.48547 -0.328903 0.83742
                  }
                }
              }
              JOINT lRing1
              {
                OFFSET 8.82822 0.546677 1.51678
                CHANNELS 3 Zrotation Xrotation Yrotation
                JOINT lRing2
                {
                  OFFSET 2.60934 -0.819778 -0.0198488
                  CHANNELS 3 Zrotation Xrotation Yrotation
                  End Site
                  {
                    OFFSET 2.33842 -0.294052 0.168128
                  }
                }
              }
              JOINT lPinky1
              {
                OFFSET 8.27202 -0.0477905 -0.4584
                CHANNELS 3 Zrotation Xrotation Yrotation
                JOINT lPinky2
                {
                  OFFSET 1.82734 -0.647385 -0.700984
                  CHANNELS 3 Zrotation Xrotation Yrotation
                  End Site
                  {
                    OFFSET 1.69225 -0.51767 -0.607171
                  }
                }
              }
            }
          }
        }
      }
    }
  }
  JOINT rButtock
  {
    OFFSET -8.77824 4.35084 1.2192
    CHANNELS 3 Zrotation Xrotation Yrotation
    JOINT rThigh
    {
      OFFSET 0 -1.70687 -2.19456
      CHANNELS 3 Zrotation Xrotation Yrotation
      JOINT rShin
      {
        OFFSET 0 -36.8199 0.73152
        CHANNELS 3 Zrotation Xrotation Yrotation
        JOINT rFoot
        {
          OFFSET 0.73152 -45.1104 -5.12064
          CHANNELS 3 Zrotation Xrotation Yrotation
          End Site
          {
            OFFSET -1.1221 -3.69964 12.103
          }
        }
      }
    }
  }
  JOINT lButtock
  {
    OFFSET 8.77824 4.35084 1.2192
    CHANNELS 3 Zrotation Xrotation Yrotation
    JOINT lThigh
    {
      OFFSET 0 -1.70687 -2.19456
      CHANNELS 3 Zrotation Xrotation Yrotation
      JOINT lShin
      {
        OFFSET 0 -36.8199 0.73152
        CHANNELS 3 Zrotation Xrotation Yrotation
        JOINT lFoot
        {
          OFFSET -0.73152 -45.1104 -5.12064
          CHANNELS 3 Zrotation Xrotation Yrotation
          End Site
          {
            OFFSET 1.1221 -3.69964 12.103
          }
        }
      }
    }
  }
}
MOTION
Frames:	8
Frame Time:	0.00833333
-6.47101 78.4695 -31.4726 15.6869 29.5179 78.6659 13.1289 35.7803 5.26036 4.09213 2.63308 2.85331 -0.465513 6.59798 -9.65354 -6.50465 -35.4305 -22.6225 -0.0 0.0 0.0 -0.0 0.0 0.0 -5.94681e-13 6.99811e-14 -2.71093e-13 29.133 -40.928 72.5029 -9.75321 -3.99272 17.3394 -0.00805023 2.56092 0.360155 -2.60076e-09 2.91484e-09 -1.45657e-10 -4.49383e-09 5.03498e-09 -2.44429e-10 -2.60075e-09 2.91483e-09 -1.45666e-10 7.73091 5.47488 0.417314 -2.60076e-09 2.91483e-09 -1.45663e-10 2.90554 0.965183 0.102902 -2.60075e-09 2.91483e-09 -1.45661e-10 10.2786 0.731801 0.0259123 -2.60076e-09 2.91483e-09 -1.45647e-10 2.22167 -0.733487 -0.20892 -5.94786e-13 6.99629e-14 -2.71192e-13 -4.69429 51.7279 -89.4735 28.2735 -32.5942 -71.3935 129.492 -78.1136 138.11 -2.696e-09 -2.35172e-10 3.19121e-09 -4.8103e-09 -4.76654e-10 5.17543e-09 -2.69601e-09 -2.35173e-10 3.19121e-09 -7.73091 5.47488 -0.417314 -2.696e-09 -2.35176e-10 3.1912e-09 -2.90554 0.965183 -0.102902 -2.696e-09 -2.35177e-10 3.1912e-09 -10.2786 0.731801 -0.0259123 -2.69599e-09 -2.35173e-10 3.19119e-09 -2.22167 -0.733487 0.20892 -2.03217e-16 0.0 -3.88251e-19 -149.317 -62.3318 -151.242 -0.515068 47.9971 1.06918 -0.853875 0.352968 -6.29261 2.03217e-16 0.0 3.88251e-19 -7.71203 -78.5411 -22.1738 0.0586548 29.8303 -0.870694 -2.0614 -9.11091 -11.5448
-6.50146 78.4694 -31.4033 15.7652 29.6081 78.8536 13.1607 35.7267 5.20775 4.11229 2.646 2.84177 -0.463895 6.67442 -9.65418 -6.51181 -35.6319 -22.6554 -0.0 0.0 0.0 -0.0 0.0 0.0 -3.64713e-13 2.74895e-14 -1.95979e-13 29.346 -41.077 72.7131 -9.71465 -3.96976 17.2673 -0.0101897 2.94194 0.413804 -1.82801e-09 2.12448e-09 4.4654e-10 -3.15707e-09 3.67055e-09 7.76575e-10 -1.82801e-09 2.12448e-09 4.46531e-10 7.73091 5.47488 0.417314 -1.82801e-09 2.12448e-09 4.46536e-10 2.90554 0.965183 0.102902 -1.82801e-09 2.12448e-09 4.46538e-10 10.2786 0.731801 0.0259123 -1.82802e-09 2.12448e-09 4.46551e-10 2.22167 -0.733487 -0.20892 -3.64826e-13 2.7474e-14 -1.96084e-13 -4.55502 51.7712 -89.5613 28.273 -32.5936 -71.3954 128.952 -78.2357 137.558 -1.8474e-09 -2.26425e-10 2.2873e-09 -3.30566e-09 -4.28644e-10 3.71769e-09 -1.84741e-09 -2.26428e-10 2.2873e-09 -7.73091 5.47488 -0.417314 -1.8474e-09 -2.26429e-10 2.28729e-09 -2.90554 0.965183 -0.102902 -1.8474e-09 -2.2643e-10 2.28729e-09 -10.2786 0.731801 -0.0259123 -1.84739e-09 -2.26426e-10 2.28728e-09 -2.22167 -0.733487 0.20892 -2.03217e-16 0.0 -3.88251e-19 -149.329 -62.1454 -151.262 -0.516783 48.0616 1.07347 -0.867741 0.27492 -6.33473 2.03217e-16 0.0 3.88251e-19 -7.96252 -78.6333 -22.3851 0.0561263 29.6798 -0.868049 -2.04512 -8.87145 -11.7099
-6.50732 78.5064 -31.3599 15.9071 29.5594 79.1045 13.1732 35.7124 5.145 4.1341 2.62153 2.8283 -0.469101 6.70623 -9.6491 -6.49762 -35.7544 -22.6574 -0.0 0.0 0.0 -0.0 0.0 0.0 2.17378e-14 -3.85616e-14 -1.97573e-14 29.6776 -41.1922 73.0248 -9.66582 -3.94073 17.1761 -0.0136803 3.41935 0.481092 -4.0828e-10 6.41822e-10 9.70289e-10 -7.02429e-10 1.11071e-09 1.67725e-09 -4.08272e-10 6.41819e-10 9.70282e-10 7.73091 5.47488 0.417314 -4.0828e-10 6.41821e-10 9.70287e-10 2.90554 0.965183 0.102902 -4.08274e-10 6.4182e-10 9.70291e-10 10.2786 0.731801 0.0259123 -4.08284e-10 6.41821e-10 9.70303e-10 2.22167 -0.733487 -0.20892 2.16237e-14 -3.85673e-14 -1.9894e-14 -4.48255 51.8313 -89.5856 28.2714 -32.5877 -71.3917 128.538 -78.3269 137.136 -2.9883e-10 -1.63277e-10 5.69564e-10 -5.53636e-10 -2.68355e-10 9.4067e-10 -2.98838e-10 -1.63279e-10 5.69577e-10 -7.73091 5.47488 -0.417314 -2.98832e-10 -1.63278e-10 5.69561e-10 -2.90554 0.965183 -0.102902 -2.98834e-10 -1.63279e-10 5.69558e-10 -10.2786 0.731801 -0.0259123 -2.98824e-10 -1.63276e-10 5.69547e-10 -2.22167 -0.733487 0.20892 -2.03217e-16 0.0 -3.88251e-19 -149.33 -61.9999 -151.272 -0.517938 48.1061 1.07736 -0.880012 0.196115 -6.36273 2.03217e-16 0.0 3.88251e-19 -8.13319 -78.7065 -22.5039 0.0535769 29.5311 -0.865677 -2.01918 -8.57357 -11.8964
-6.51221 78.5472 -31.3123 16.0336 29.5174 79.3142 13.1766 35.7101 5.0908 4.15747 2.59049 2.81656 -0.481768 6.71974 -9.64519 -6.47058 -35.8348 -22.6503 -0.0 0.0 0.0 -0.0 0.0 0.0 3.79066e-13 -1.0521e-13 1.80891e-13 29.9834 -41.2816 73.3107 -9.62554 -3.91682 17.101 -0.01798 3.87348 0.545192 9.17407e-10 -8.13005e-10 1.23207e-09 1.58887e-09 -1.40142e-09 2.1256e-09 9.17415e-10 -8.13008e-10 1.23207e-09 7.73091 5.47488 0.417314 9.17407e-10 -8.13005e-10 1.23207e-09 2.90554 0.965183 0.102902 9.17414e-10 -8.13006e-10 1.23208e-09 10.2786 0.731801 0.0259123 9.17403e-10 -8.13004e-10 1.23209e-09 2.22167 -0.733487 -0.20892 3.78951e-13 -1.05203e-13 1.80717e-13 -4.4388 51.8958 -89.5907 28.2694 -32.5782 -71.3827 128.27 -78.3851 136.862 1.18042e-09 -1.02148e-10 -1.15793e-09 2.08203e-09 -1.104e-10 -1.85834e-09 1.18041e-09 -1.02151e-10 -1.15791e-09 -7.73091 5.47488 -0.417314 1.18042e-09 -1.02147e-10 -1.15793e-09 -2.90554 0.965183 -0.102902 1.18042e-09 -1.02148e-10 -1.15793e-09 -10.2786 0.731801 -0.0259123 1.18043e-09 -1.02146e-10 -1.15795e-09 -2.22167 -0.733487 0.20892 -2.03217e-16 0.0 -3.88251e-19 -149.332 -61.8832 -151.28 -0.518784 48.14 1.0807 -0.892209 0.114608 -6.39066 2.03217e-16 0.0 3.88251e-19 -8.23873 -78.769 -22.5559 0.0513866 29.404 -0.863725 -1.9947 -8.30474 -12.0673
-6.54027 78.5695 -31.2421 16.0794 29.6235 79.4133 13.1809 35.692 5.0639 4.18231 2.58368 2.81019 -0.502522 6.74127 -9.64934 -6.43942 -35.9101 -22.6563 -0.0 0.0 0.0 -0.0 0.0 0.0 5.21664e-13 -1.49495e-13 3.29287e-13 30.1183 -41.3557 73.4432 -9.61278 -3.90927 17.0772 -0.0215257 4.1847 0.58918 1.40801e-09 -1.51986e-09 1.03838e-09 2.43559e-09 -2.62269e-09 1.78964e-09 1.40802e-09 -1.51986e-09 1.03837e-09 7.73091 5.47488 0.417314 1.40801e-09 -1.51986e-09 1.03838e-09 2.90554 0.965183 0.102902 1.40802e-09 -1.51986e-09 1.03839e-09 10.2786 0.731801 0.0259123 1.40801e-09 -1.51985e-09 1.0384e-09 2.22167 -0.733487 -0.20892 5.21542e-13 -1.49477e-13 3.29088e-13 -4.38556 51.9522 -89.6209 28.2675 -32.5668 -71.3685 128.166 -78.4075 136.755 1.82107e-09 -9.94607e-11 -2.09112e-09 3.23759e-09 -6.93933e-11 -3.38207e-09 1.82106e-09 -9.94635e-11 -2.09109e-09 -7.73091 5.47488 -0.417314 1.82107e-09 -9.94586e-11 -2.09112e-09 -2.90554 0.965183 -0.102902 1.82107e-09 -9.94593e-11 -2.09112e-09 -10.2786 0.731801 -0.0259123 1.82108e-09 -9.94579e-11 -2.09114e-09 -2.22167 -0.733487 0.20892 -2.03217e-16 0.0 -3.88251e-19 -149.348 -61.783 -151.297 -0.519577 48.1728 1.08336 -0.905934 0.0284628 -6.43257 2.03217e-16 0.0 3.88251e-19 -8.29509 -78.8293 -22.5682 0.0499313 29.3184 -0.862336 -1.98448 -8.15214 -12.1858
-6.57482 78.582 -31.1664 16.0596 29.7578 79.4609 13.1917 35.6513 5.07929 4.21064 2.61227 2.81278 -0.548154 6.78376 -9.66813 -6.38229 -35.9855 -22.6792 -0.0 0.0 0.0 -0.0 0.0 0.0 3.10885e-13 -1.65428e-13 4.17004e-13 30.0114 -41.4118 73.3578 -9.63928 -3.92504 17.1266 -0.0229487 4.29747 0.605133 4.79032e-10 -1.03366e-09 -1.44893e-11 8.26168e-10 -1.78542e-09 -2.62024e-11 4.7904e-10 -1.03366e-09 -1.4492e-11 7.73091 5.47488 0.417314 4.79031e-10 -1.03366e-09 -1.44868e-11 2.90554 0.965183 0.102902 4.7904e-10 -1.03366e-09 -1.44808e-11 10.2786 0.731801 0.0259123 4.79029e-10 -1.03366e-09 -1.44709e-11 2.22167 -0.733487 -0.20892 3.10745e-13 -1.654e-13 4.16802e-13 -4.33313 52.0008 -89.682 28.2659 -32.5538 -71.3486 128.26 -78.3873 136.851 1.08257e-09 -2.09356e-10 -1.79889e-09 1.96505e-09 -2.41798e-10 -2.94453e-09 1.08256e-09 -2.09358e-10 -1.79886e-09 -7.73091 5.47488 -0.417314 1.08257e-09 -2.09354e-10 -1.79889e-09 -2.90554 0.965183 -0.102902 1.08256e-09 -2.09354e-10 -1.79889e-09 -10.2786 0.731801 -0.0259123 1.08257e-09 -2.09353e-10 -1.79891e-09 -2.22167 -0.733487 0.20892 -2.03217e-16 0.0 -3.88251e-19 -149.378 -61.7034 -151.336 -0.520316 48.2051 1.08501 -0.921512 -0.0711822 -6.48717 2.03217e-16 0.0 3.88251e-19 -8.25531 -78.8886 -22.5084 0.0493692 29.2909 -0.861749 -1.99772 -8.17466 -12.2259
-6.59127 78.5954 -31.1044 16.0568 29.7951 79.5327 13.2029 35.6025 5.12358 4.24182 2.65883 2.82151 -0.61275 6.83119 -9.69631 -6.30262 -36.0431 -22.7078 -0.0 0.0 0.0 -0.0 0.0 0.0 -1.24563e-13 -1.6521e-13 4.80932e-13 29.7497 -41.4462 73.131 -9.69266 -3.95677 17.2262 -0.0227731 4.28349 0.603155 -1.34535e-09 1.77156e-10 -1.70596e-09 -2.33276e-09 3.01992e-10 -2.94251e-09 -1.34534e-09 1.77155e-10 -1.70596e-09 7.73091 5.47488 0.417314 -1.34535e-09 1.77157e-10 -1.70596e-09 2.90554 0.965183 0.102902 -1.34534e-09 1.77159e-10 -1.70595e-09 10.2786 0.731801 0.0259123 -1.34535e-09 1.77161e-10 -1.70594e-09 2.22167 -0.733487 -0.20892 -1.24728e-13 -1.65171e-13 4.80736e-13 -4.29506 52.047 -89.7522 28.2644 -32.5382 -71.3231 128.534 -78.3279 137.132 -5.13002e-10 -3.8871e-10 -7.82304e-10 -8.1348e-10 -5.44519e-10 -1.35094e-09 -5.13011e-10 -3.88711e-10 -7.82285e-10 -7.73091 5.47488 -0.417314 -5.13002e-10 -3.88709e-10 -7.82299e-10 -2.90554 0.965183 -0.102902 -5.13008e-10 -3.88709e-10 -7.82305e-10 -10.2786 0.731801 -0.0259123 -5.12999e-10 -3.88709e-10 -7.82319e-10 -2.22167 -0.733487 0.20892 -2.03217e-16 0.0 -3.88251e-19 -149.415 -61.6484 -151.389 -0.520881 48.2324 1.08581 -0.938224 -0.180501 -6.54865 2.03217e-16 0.0 3.88251e-19 -8.126 -78.9426 -22.3733 0.0494724 29.3072 -0.861813 -2.02665 -8.31377 -12.2126
-6.59573 78.6084 -31.0601 16.1006 29.7763 79.6663 13.2064 35.5504 5.17301 4.27181 2.71135 2.83045 -0.662923 6.86645 -9.72303 -6.24717 -36.0838 -22.7423 -0.0 0.0 0.0 -0.0 0.0 0.0 -5.69254e-13 -1.53163e-13 5.12359e-13 29.4248 -41.4694 72.8477 -9.75572 -3.99433 17.3441 -0.0219074 4.21395 0.593318 -3.14314e-09 1.46251e-09 -3.29315e-09 -5.44518e-09 2.51855e-09 -5.67882e-09 -3.14313e-09 1.46251e-09 -3.29315e-09 7.73091 5.47488 0.417314 -3.14314e-09 1.46251e-09 -3.29315e-09 2.90554 0.965183 0.102902 -3.14313e-09 1.46252e-09 -3.29314e-09 10.2786 0.731801 0.0259123 -3.14314e-09 1.46252e-09 -3.29313e-09 2.22167 -0.733487 -0.20892 -5.69443e-13 -1.53115e-13 5.12169e-13 -4.23763 52.086 -89.8357 28.2626 -32.5202 -71.2932 128.922 -78.2425 137.528 -2.14096e-09 -5.48049e-10 3.64413e-10 -3.65659e-09 -8.22838e-10 4.59132e-10 -2.14097e-09 -5.48048e-10 3.64427e-10 -7.73091 5.47488 -0.417314 -2.14096e-09 -5.48049e-10 3.64421e-10 -2.90554 0.965183 -0.102902 -2.14097e-09 -5.48049e-10 3.64414e-10 -10.2786 0.731801 -0.0259123 -2.14096e-09 -5.48049e-10 3.64402e-10 -2.22167 -0.733487 0.20892 -2.03217e-16 0.0 -3.88251e-19 -149.464 -61.6061 -151.429 -0.521358 48.2567 1.08637 -0.956175 -0.282389 -6.6243 2.03217e-16 0.0 3.88251e-19 -8.00541 -78.9918 -22.236 0.0500389 29.3403 -0.862087 -2.05915 -8.48041 -12.1856
